<svg width="287" height="100" viewBox="0 0 287 100" fill="none" xmlns="http://www.w3.org/2000/svg">
<path d="M129.6 53.25H121.475L119.925 57H115.775L123.575 39.5H127.575L135.4 57H131.15L129.6 53.25ZM128.325 50.175L125.55 43.475L122.775 50.175H128.325ZM145.291 39.5C146.841 39.5 148.182 39.7583 149.316 40.275C150.466 40.7917 151.349 41.525 151.966 42.475C152.582 43.425 152.891 44.55 152.891 45.85C152.891 47.1333 152.582 48.2583 151.966 49.225C151.349 50.175 150.466 50.9083 149.316 51.425C148.182 51.925 146.841 52.175 145.291 52.175H141.766V57H137.716V39.5H145.291ZM145.066 48.875C146.282 48.875 147.207 48.6167 147.841 48.1C148.474 47.5667 148.791 46.8167 148.791 45.85C148.791 44.8667 148.474 44.1167 147.841 43.6C147.207 43.0667 146.282 42.8 145.066 42.8H141.766V48.875H145.066ZM169.832 53.75V57H156.282V39.5H169.507V42.75H160.307V46.55H168.432V49.7H160.307V53.75H169.832ZM184.409 57L180.184 50.925L176.034 57H171.384L177.859 48.1L171.709 39.5H176.309L180.334 45.175L184.284 39.5H188.659L182.559 47.95L189.084 57H184.409ZM202.935 42.8H197.335V39.5H212.585V42.8H206.985V57H202.935V42.8ZM225.911 53.25H217.786L216.236 57H212.086L219.886 39.5H223.886L231.711 57H227.461L225.911 53.25ZM224.636 50.175L221.861 43.475L219.086 50.175H224.636ZM234.348 38.25C235.048 38.25 235.623 38.475 236.073 38.925C236.523 39.3583 236.748 39.9333 236.748 40.65C236.748 40.9833 236.706 41.3167 236.623 41.65C236.54 41.9833 236.365 42.4833 236.098 43.15L234.648 46.75H232.173L233.248 42.8C232.831 42.6167 232.506 42.3417 232.273 41.975C232.04 41.6083 231.923 41.1667 231.923 40.65C231.923 39.9333 232.148 39.3583 232.598 38.925C233.065 38.475 233.648 38.25 234.348 38.25ZM240.166 39.5H244.216V53.7H252.991V57H240.166V39.5ZM255.754 39.5H259.804V57H255.754V39.5ZM280.382 57L280.357 46.5L275.207 55.15H273.382L268.257 46.725V57H264.457V39.5H267.807L274.357 50.375L280.807 39.5H284.132L284.182 57H280.382Z" fill="black"/>
<path d="M46.6089 0.0130768C45.062 0.14724 43.5309 0.320862 42.426 0.486588C20.6829 3.81695 3.64351 20.9501 0.44715 42.7001C0.107783 45.0045 0.0288608 46.0462 0.00518406 48.7373C-0.00270819 50.1894 -0.00270819 51.2232 0.0130763 51.0259C0.0288608 50.8286 0.0841066 50.2052 0.13146 49.6449C0.431366 46.0541 1.15745 42.5422 2.3334 39.0303C4.20386 33.4114 6.95826 28.4947 10.8255 23.8385C11.9225 22.5206 15.0084 19.427 16.3816 18.2748C21.5826 13.9027 27.6675 10.6986 34.0602 8.96243C45.3225 5.90828 57.3187 7.16309 67.5944 12.4822C73.6399 15.6152 78.975 20.0899 83.15 25.5274C91.4921 36.3945 94.5622 50.4498 91.5395 63.9291C89.9374 71.1028 86.5674 77.8661 81.7294 83.6192C80.5772 84.9924 77.4834 88.0781 76.1654 89.1751C71.509 93.0421 66.5921 95.7964 60.9728 97.6667C57.4608 98.8426 53.9487 99.5687 50.3577 99.8685C49.7974 99.9159 49.1739 99.9711 48.9766 99.9869C48.7793 100.003 49.8132 100.003 51.2653 99.9948C53.9566 99.9711 54.9984 99.8922 57.3029 99.5529C69.4886 97.7614 80.5377 91.5663 88.4694 82.0724C94.3334 75.0566 98.1295 66.636 99.5186 57.5762C99.9447 54.7667 100 53.938 100 50C100 46.062 99.9447 45.2333 99.5186 42.4238C96.188 20.6818 79.054 3.64333 57.3029 0.447128C54.7774 0.07621 54.0355 0.028862 50.4367 0.00518799C48.5267 -0.00270844 46.8062 -0.00270844 46.6089 0.0130768Z" fill="black"/>
<path d="M42.8997 7.54981C27.936 8.54419 14.5586 17.4067 7.77914 30.8308C4.01454 38.2886 2.5308 46.5671 3.48576 54.8535C5.06421 68.6801 13.359 80.8966 25.6551 87.5021C37.8328 94.0366 52.5756 94.2181 64.919 87.9835C74.3345 83.2247 81.6901 75.0882 85.4705 65.2471C87.3172 60.4252 88.3038 55.1377 88.2722 50.1737L88.2643 48.6979L88.1538 49.9606C87.4435 58.3023 84.3971 65.7522 79.062 72.1762C78.0675 73.3757 75.9445 75.5223 74.666 76.635C68.3206 82.1278 60.602 85.3792 52.1731 86.1132C50.3263 86.271 46.3091 86.2315 44.636 86.0342C39.798 85.466 35.7414 84.2822 31.4954 82.1988C19.7359 76.4456 11.5595 65.0656 9.83902 52.0914C9.57069 50.0474 9.49176 48.4848 9.53912 46.062C9.59436 43.1105 9.83902 41.027 10.4309 38.2807C11.4727 33.514 13.7378 28.3606 16.579 24.32C17.3446 23.2388 17.6129 22.8837 17.5024 23.1283C17.3446 23.4519 16.9973 24.5725 16.8079 25.338C16.0344 28.5027 15.8056 32.6301 16.2633 35.0845C16.4685 36.1499 17.1551 38.8805 17.5734 40.2773C19.5702 46.9144 22.9717 52.3755 27.6676 56.5029C28.8988 57.5841 29.3408 57.9314 33.4132 61.0013C37.162 63.8187 38.6063 64.9472 39.7822 65.9732C44.7386 70.2821 47.0826 73.9834 48.1007 79.0815L48.3216 80.1864L48.5268 79.5156C49.3397 76.8876 49.7817 72.7601 49.6081 69.4771C49.5607 68.6169 49.4739 67.4805 49.4108 66.9517C48.5584 60.0148 45.6225 53.504 40.7293 47.7509C40.2873 47.23 39.0404 45.8805 37.967 44.752C32.8765 39.4171 29.5065 35.629 27.7465 33.2693C27.3677 32.7564 27.0362 32.2908 27.0126 32.2276C26.9257 32.0303 26.4838 32.6538 26.3023 33.2299C25.7261 35.0529 26.539 38.4464 28.2911 41.5242C28.7331 42.3055 29.254 43.071 30.6509 45.0045C31.0455 45.5491 31.1402 45.7385 31.1244 45.9279C31.1007 46.1646 31.085 46.1725 30.6903 46.1962C29.0724 46.2909 25.6077 43.2604 23.2085 39.6617C22.001 37.8387 20.7619 35.4475 20.1779 33.7902C19.5781 32.0935 19.3808 30.081 19.5307 27.311C19.7043 24.2411 19.728 23.0889 19.6254 22.5917C19.5149 22.0787 19.2387 21.6999 18.9072 21.6131L18.6783 21.5499L19.5702 20.5635C24.8106 14.763 31.4717 10.6987 38.9141 8.76516C41.2265 8.16538 43.2785 7.81814 45.8593 7.58927L47.0431 7.48668H45.4646C44.5965 7.48668 43.4442 7.51825 42.8997 7.54981Z" fill="black"/>
<path d="M46.7034 20.0112C44.4146 20.611 42.7493 22.7971 42.7415 25.2041C42.7415 25.4329 42.7967 25.8907 42.8677 26.2221C43.3807 28.7238 45.5669 30.5074 48.1082 30.5074C50.5232 30.5074 52.662 28.8422 53.2776 26.4826C53.4591 25.796 53.467 24.5491 53.2855 23.8782C52.7883 21.9605 51.2335 20.4137 49.3709 19.9797C48.6527 19.8061 47.4215 19.8218 46.7034 20.0112Z" fill="black"/>
<path d="M77.3097 21.8027C76.8125 22.2604 76.7493 23.0496 76.9624 26.2932C77.2229 30.2707 76.9861 32.4094 76.0311 34.6506C74.7999 37.539 73.2373 40.0802 71.3431 42.2663C69.1017 44.8469 66.5447 46.5594 65.5187 46.1648C65.4476 46.1333 65.3924 46.0228 65.3924 45.8965C65.3924 45.6755 65.5897 45.3756 66.813 43.7341C68.3678 41.6349 69.4964 39.3305 70.1119 36.9787C70.3645 36.008 70.3882 35.8107 70.3961 34.769C70.404 33.5063 70.2777 32.9933 69.8357 32.4172L69.6226 32.1331L69.4648 32.362C67.5154 35.0847 64.3585 38.6834 58.7234 44.5943C56.0322 47.4117 55.0299 48.5955 53.6014 50.5764C52.2518 52.4625 50.8864 54.838 49.9709 56.8819C49.0712 58.8865 49.1107 58.5156 49.671 60.1965C50.7996 63.5742 51.4231 67.1966 51.4231 70.377C51.4231 71.0636 51.4468 71.6239 51.4862 71.616C51.5178 71.616 51.8335 71.2135 52.1886 70.7321C53.3804 69.1222 55.022 67.4412 57.2634 65.5551C58.5261 64.4818 60.1598 63.2191 64.0112 60.3228C67.8784 57.4107 68.5098 56.8977 70.0409 55.4062C74.0739 51.4681 76.8677 46.8356 78.7619 40.9246C79.2906 39.2989 80.1746 35.7949 80.3561 34.6112C80.5218 33.5852 80.5455 30.6731 80.3956 29.2842C80.0167 25.7013 79.1407 22.6787 78.241 21.8659C77.8779 21.5344 77.6254 21.5186 77.3097 21.8027Z" fill="black"/>
<path d="M67.1287 26.7823C66.3553 27.9898 64.2007 29.4419 61.691 30.4678C59.7968 31.2333 57.9658 31.7384 55.172 32.2514C52.1334 32.8038 50.0894 33.3799 48.7319 34.0665L48.1084 34.3743L47.3744 34.0271C45.9222 33.3247 43.9886 32.7801 41.2027 32.283C37.6354 31.6437 35.2677 30.9177 32.8921 29.726C31.1874 28.8737 29.7037 27.7294 29.0328 26.7587L28.7566 26.3641L28.7961 26.9165C28.9618 29.0157 30.5245 31.8805 32.8211 34.2638C34.3522 35.858 35.7176 36.9628 38.2036 38.6122C39.9715 39.7881 40.595 40.2853 41.6368 41.3665C44.2333 44.0576 46.2143 47.8693 47.3586 52.3677C47.6585 53.5515 48.0295 55.4771 48.0295 55.8559C48.0295 56.3136 48.1084 56.0295 48.3057 54.8299C49.1739 49.6845 51.3363 44.8862 54.1933 41.7453C55.3456 40.4747 56.1348 39.8355 58.3289 38.3834C62.1566 35.8422 64.7374 33.23 66.2527 30.3495C66.9393 29.0315 67.5155 27.1848 67.4286 26.5456C67.405 26.372 67.3734 26.3956 67.1287 26.7823Z" fill="black"/>
</svg>
